<?xml version="1.0" standalone="no"?><svg xmlns="http://www.w3.org/2000/svg" viewBox="0 0 1440 320"><path fill="#292b33" fill-opacity="1" d="M0,128L21.8,138.7C43.6,149,87,171,131,186.7C174.5,203,218,213,262,186.7C305.5,160,349,96,393,69.3C436.4,43,480,53,524,80C567.3,107,611,149,655,138.7C698.2,128,742,64,785,48C829.1,32,873,64,916,74.7C960,85,1004,75,1047,74.7C1090.9,75,1135,85,1178,90.7C1221.8,96,1265,96,1309,112C1352.7,128,1396,160,1418,176L1440,192L1440,0L1418.2,0C1396.4,0,1353,0,1309,0C1265.5,0,1222,0,1178,0C1134.5,0,1091,0,1047,0C1003.6,0,960,0,916,0C872.7,0,829,0,785,0C741.8,0,698,0,655,0C610.9,0,567,0,524,0C480,0,436,0,393,0C349.1,0,305,0,262,0C218.2,0,175,0,131,0C87.3,0,44,0,22,0L0,0Z"></path></svg>