<?xml version="1.0" standalone="no"?><svg xmlns="http://www.w3.org/2000/svg" viewBox="0 0 1440 320"><path fill="#292b33" fill-opacity="1" d="M0,128L21.8,138.7C43.6,149,87,171,131,186.7C174.5,203,218,213,262,186.7C305.5,160,349,96,393,69.3C436.4,43,480,53,524,80C567.3,107,611,149,655,138.7C698.2,128,742,64,785,48C829.1,32,873,64,916,74.7C960,85,1004,75,1047,74.7C1090.9,75,1135,85,1178,90.7C1221.8,96,1265,96,1309,112C1352.7,128,1396,160,1418,176L1440,192L1440,320L1418.2,320C1396.4,320,1353,320,1309,320C1265.5,320,1222,320,1178,320C1134.5,320,1091,320,1047,320C1003.6,320,960,320,916,320C872.7,320,829,320,785,320C741.8,320,698,320,655,320C610.9,320,567,320,524,320C480,320,436,320,393,320C349.1,320,305,320,262,320C218.2,320,175,320,131,320C87.3,320,44,320,22,320L0,320Z"></path></svg>